<svg width="401" height="376" viewBox="0 0 401 376" fill="none" xmlns="http://www.w3.org/2000/svg">
<path d="M200.5 349H124.5V0H290C306 0 320.5 2.6667 333.5 8C346.5 13.3333 357.5 21 366.5 31C375.833 40.667 383 52.333 388 66C393 79.667 395.5 94.833 395.5 111.5C395.5 135.167 390.167 155.833 379.5 173.5C369.167 191.167 353.333 204 332 212L400.5 349H316L255 221H200.5V349ZM280.5 157C291.833 157 300.667 154.167 307 148.5C313.667 142.5 317 133.833 317 122.5V100.5C317 89.167 313.667 80.667 307 75C300.667 69 291.833 66 280.5 66H200.5V157H280.5Z" fill="#0F172A"/>
<path d="M163 348C190.333 348 211.5 344.167 226.5 336.5C241.5 328.833 249 317.667 249 303C249 290 244.5 278.833 235.5 269.5C226.5 259.833 215.333 251.667 202 245C188.667 238.333 170.5 230.5 147.5 221.5C145.5 220.833 140.667 219 133 216C101.667 203.333 77.5 190.667 60.5 178C43.833 165.333 35.5 149 35.5 129C35.5 106.667 44.333 89.833 62 78.5C79.667 67.167 102.333 61.5 130 61.5C150.333 61.5 169 64.167 186 69.5C203.333 74.5 217 81.5 227 90.5C237.333 99.5 242.5 109.667 242.5 121C238.5 123 234.667 124 231 124C227 124 222.833 123.167 218.5 121.5C214.5 119.5 208.5 116.333 200.5 112C187.5 105 175.333 99.5 164 95.5C152.667 91.167 139.333 89 124 89C104.667 89 89 92.333 77 99C65 105.667 59 115 59 127C59 136.333 63 144.833 71 152.5C79.333 160.167 89.667 167 102 173C114.667 178.667 131.5 185.5 152.5 193.5C179.167 203.833 201.167 213.5 218.5 222.5C235.833 231.5 250.5 243 262.5 257C274.833 270.667 281 287 281 306C281 328.333 270.333 345.667 249 358C227.667 370 201.167 376 169.5 376C144.5 376 119.833 372.333 95.5 365C71.167 357.667 50.333 346.833 33 332.5C15.6667 317.833 4.6667 300.333 0 280C0 271 2.5 263.333 7.5 257C12.5 250.333 18.667 247 26 247C26 268.667 32 287.167 44 302.5C56.333 317.5 72.833 328.833 93.5 336.5C114.5 344.167 137.667 348 163 348Z" fill="#38BDF8"/>
<path d="M220.5 221C226 202 150.881 187 147.595 167H124.5V213.5V260L182.514 268L200.5 289.5V221H220.5Z" fill="#0F172A"/>
</svg>
